<mxfile host="app.diagrams.net" modified="2023-09-29T13:10:54.610Z" agent="Mozilla/5.0 (Windows NT 10.0; Win64; x64) AppleWebKit/537.36 (KHTML, like Gecko) Chrome/116.0.0.0 Safari/537.36" etag="Aem4J873lqNExX38cYFV" version="21.8.0" type="device">
  <diagram name="Страница — 1" id="IEi6b3AqYbR_tt0G0GOA">
    <mxGraphModel dx="1914" dy="3369" grid="1" gridSize="10" guides="1" tooltips="1" connect="1" arrows="1" fold="1" page="1" pageScale="1" pageWidth="827" pageHeight="1169" math="0" shadow="0">
      <root>
        <mxCell id="0" />
        <mxCell id="1" parent="0" />
        <mxCell id="zi9uzp55vkOhE5EhcV1z-14" value="Пользователь" style="swimlane;fontStyle=0;childLayout=stackLayout;horizontal=1;startSize=26;horizontalStack=0;resizeParent=1;resizeParentMax=0;resizeLast=0;collapsible=1;marginBottom=0;align=center;fontSize=14;" vertex="1" parent="1">
          <mxGeometry x="30" y="-2090" width="160" height="176" as="geometry" />
        </mxCell>
        <mxCell id="zi9uzp55vkOhE5EhcV1z-15" value="ФИО (string)" style="text;strokeColor=none;fillColor=none;spacingLeft=4;spacingRight=4;overflow=hidden;rotatable=0;points=[[0,0.5],[1,0.5]];portConstraint=eastwest;fontSize=12;whiteSpace=wrap;html=1;perimeterSpacing=0;labelBorderColor=none;" vertex="1" parent="zi9uzp55vkOhE5EhcV1z-14">
          <mxGeometry y="26" width="160" height="30" as="geometry" />
        </mxCell>
        <mxCell id="zi9uzp55vkOhE5EhcV1z-16" value="Логин (string)" style="text;strokeColor=none;fillColor=none;spacingLeft=4;spacingRight=4;overflow=hidden;rotatable=0;points=[[0,0.5],[1,0.5]];portConstraint=eastwest;fontSize=12;whiteSpace=wrap;html=1;" vertex="1" parent="zi9uzp55vkOhE5EhcV1z-14">
          <mxGeometry y="56" width="160" height="30" as="geometry" />
        </mxCell>
        <mxCell id="zi9uzp55vkOhE5EhcV1z-17" value="Пароль (string)" style="text;strokeColor=none;fillColor=none;spacingLeft=4;spacingRight=4;overflow=hidden;rotatable=0;points=[[0,0.5],[1,0.5]];portConstraint=eastwest;fontSize=12;whiteSpace=wrap;html=1;" vertex="1" parent="zi9uzp55vkOhE5EhcV1z-14">
          <mxGeometry y="86" width="160" height="30" as="geometry" />
        </mxCell>
        <mxCell id="zi9uzp55vkOhE5EhcV1z-18" value="Эл. порча (string)" style="text;strokeColor=none;fillColor=none;spacingLeft=4;spacingRight=4;overflow=hidden;rotatable=0;points=[[0,0.5],[1,0.5]];portConstraint=eastwest;fontSize=12;whiteSpace=wrap;html=1;" vertex="1" parent="zi9uzp55vkOhE5EhcV1z-14">
          <mxGeometry y="116" width="160" height="30" as="geometry" />
        </mxCell>
        <mxCell id="zi9uzp55vkOhE5EhcV1z-19" value="Роль&amp;nbsp;(int)" style="text;strokeColor=none;fillColor=none;spacingLeft=4;spacingRight=4;overflow=hidden;rotatable=0;points=[[0,0.5],[1,0.5]];portConstraint=eastwest;fontSize=12;whiteSpace=wrap;html=1;" vertex="1" parent="zi9uzp55vkOhE5EhcV1z-14">
          <mxGeometry y="146" width="160" height="30" as="geometry" />
        </mxCell>
        <mxCell id="zi9uzp55vkOhE5EhcV1z-20" value="Роль" style="swimlane;fontStyle=0;childLayout=stackLayout;horizontal=1;startSize=26;horizontalStack=0;resizeParent=1;resizeParentMax=0;resizeLast=0;collapsible=1;marginBottom=0;align=center;fontSize=14;" vertex="1" parent="1">
          <mxGeometry x="300" y="-2090" width="160" height="56" as="geometry" />
        </mxCell>
        <mxCell id="zi9uzp55vkOhE5EhcV1z-21" value="Название (string)" style="text;strokeColor=none;fillColor=none;spacingLeft=4;spacingRight=4;overflow=hidden;rotatable=0;points=[[0,0.5],[1,0.5]];portConstraint=eastwest;fontSize=12;whiteSpace=wrap;html=1;" vertex="1" parent="zi9uzp55vkOhE5EhcV1z-20">
          <mxGeometry y="26" width="160" height="30" as="geometry" />
        </mxCell>
        <mxCell id="zi9uzp55vkOhE5EhcV1z-28" value="Профеccия" style="swimlane;fontStyle=0;childLayout=stackLayout;horizontal=1;startSize=26;horizontalStack=0;resizeParent=1;resizeParentMax=0;resizeLast=0;collapsible=1;marginBottom=0;align=center;fontSize=14;" vertex="1" parent="1">
          <mxGeometry x="30" y="-1600" width="160" height="56" as="geometry" />
        </mxCell>
        <mxCell id="zi9uzp55vkOhE5EhcV1z-29" value="Название (string)" style="text;strokeColor=none;fillColor=none;spacingLeft=4;spacingRight=4;overflow=hidden;rotatable=0;points=[[0,0.5],[1,0.5]];portConstraint=eastwest;fontSize=12;whiteSpace=wrap;html=1;" vertex="1" parent="zi9uzp55vkOhE5EhcV1z-28">
          <mxGeometry y="26" width="160" height="30" as="geometry" />
        </mxCell>
        <mxCell id="zi9uzp55vkOhE5EhcV1z-32" value="Навык" style="swimlane;fontStyle=0;childLayout=stackLayout;horizontal=1;startSize=26;horizontalStack=0;resizeParent=1;resizeParentMax=0;resizeLast=0;collapsible=1;marginBottom=0;align=center;fontSize=14;" vertex="1" parent="1">
          <mxGeometry x="30" y="-1770" width="160" height="56" as="geometry" />
        </mxCell>
        <mxCell id="zi9uzp55vkOhE5EhcV1z-33" value="Название (string)" style="text;strokeColor=none;fillColor=none;spacingLeft=4;spacingRight=4;overflow=hidden;rotatable=0;points=[[0,0.5],[1,0.5]];portConstraint=eastwest;fontSize=12;whiteSpace=wrap;html=1;" vertex="1" parent="zi9uzp55vkOhE5EhcV1z-32">
          <mxGeometry y="26" width="160" height="30" as="geometry" />
        </mxCell>
        <mxCell id="zi9uzp55vkOhE5EhcV1z-34" value="Вопрос" style="swimlane;fontStyle=0;childLayout=stackLayout;horizontal=1;startSize=26;horizontalStack=0;resizeParent=1;resizeParentMax=0;resizeLast=0;collapsible=1;marginBottom=0;align=center;fontSize=14;" vertex="1" parent="1">
          <mxGeometry x="300" y="-1914" width="160" height="116" as="geometry" />
        </mxCell>
        <mxCell id="zi9uzp55vkOhE5EhcV1z-35" value="Текст вопроса (string)" style="text;strokeColor=none;fillColor=none;spacingLeft=4;spacingRight=4;overflow=hidden;rotatable=0;points=[[0,0.5],[1,0.5]];portConstraint=eastwest;fontSize=12;whiteSpace=wrap;html=1;" vertex="1" parent="zi9uzp55vkOhE5EhcV1z-34">
          <mxGeometry y="26" width="160" height="30" as="geometry" />
        </mxCell>
        <mxCell id="zi9uzp55vkOhE5EhcV1z-36" value="Балл (int)" style="text;strokeColor=none;fillColor=none;spacingLeft=4;spacingRight=4;overflow=hidden;rotatable=0;points=[[0,0.5],[1,0.5]];portConstraint=eastwest;fontSize=12;whiteSpace=wrap;html=1;" vertex="1" parent="zi9uzp55vkOhE5EhcV1z-34">
          <mxGeometry y="56" width="160" height="30" as="geometry" />
        </mxCell>
        <mxCell id="zi9uzp55vkOhE5EhcV1z-38" value="Навык (int)" style="text;strokeColor=none;fillColor=none;spacingLeft=4;spacingRight=4;overflow=hidden;rotatable=0;points=[[0,0.5],[1,0.5]];portConstraint=eastwest;fontSize=12;whiteSpace=wrap;html=1;" vertex="1" parent="zi9uzp55vkOhE5EhcV1z-34">
          <mxGeometry y="86" width="160" height="30" as="geometry" />
        </mxCell>
        <mxCell id="zi9uzp55vkOhE5EhcV1z-40" value="Модельная профессия" style="swimlane;fontStyle=0;childLayout=stackLayout;horizontal=1;startSize=26;horizontalStack=0;resizeParent=1;resizeParentMax=0;resizeLast=0;collapsible=1;marginBottom=0;align=center;fontSize=14;" vertex="1" parent="1">
          <mxGeometry x="300" y="-1600" width="160" height="130" as="geometry" />
        </mxCell>
        <mxCell id="zi9uzp55vkOhE5EhcV1z-41" value="Название профессии (string)" style="text;strokeColor=none;fillColor=none;spacingLeft=4;spacingRight=4;overflow=hidden;rotatable=0;points=[[0,0.5],[1,0.5]];portConstraint=eastwest;fontSize=12;whiteSpace=wrap;html=1;" vertex="1" parent="zi9uzp55vkOhE5EhcV1z-40">
          <mxGeometry y="26" width="160" height="44" as="geometry" />
        </mxCell>
        <mxCell id="zi9uzp55vkOhE5EhcV1z-42" value="Навык&amp;nbsp;(int)" style="text;strokeColor=none;fillColor=none;spacingLeft=4;spacingRight=4;overflow=hidden;rotatable=0;points=[[0,0.5],[1,0.5]];portConstraint=eastwest;fontSize=12;whiteSpace=wrap;html=1;" vertex="1" parent="zi9uzp55vkOhE5EhcV1z-40">
          <mxGeometry y="70" width="160" height="30" as="geometry" />
        </mxCell>
        <mxCell id="zi9uzp55vkOhE5EhcV1z-43" value="Количество баллов&amp;nbsp;(int)" style="text;strokeColor=none;fillColor=none;spacingLeft=4;spacingRight=4;overflow=hidden;rotatable=0;points=[[0,0.5],[1,0.5]];portConstraint=eastwest;fontSize=12;whiteSpace=wrap;html=1;" vertex="1" parent="zi9uzp55vkOhE5EhcV1z-40">
          <mxGeometry y="100" width="160" height="30" as="geometry" />
        </mxCell>
        <mxCell id="zi9uzp55vkOhE5EhcV1z-44" value="Ответ" style="swimlane;fontStyle=0;childLayout=stackLayout;horizontal=1;startSize=26;horizontalStack=0;resizeParent=1;resizeParentMax=0;resizeLast=0;collapsible=1;marginBottom=0;align=center;fontSize=14;" vertex="1" parent="1">
          <mxGeometry x="300" y="-1770" width="160" height="146" as="geometry" />
        </mxCell>
        <mxCell id="zi9uzp55vkOhE5EhcV1z-45" value="Пользователь (int)" style="text;strokeColor=none;fillColor=none;spacingLeft=4;spacingRight=4;overflow=hidden;rotatable=0;points=[[0,0.5],[1,0.5]];portConstraint=eastwest;fontSize=12;whiteSpace=wrap;html=1;" vertex="1" parent="zi9uzp55vkOhE5EhcV1z-44">
          <mxGeometry y="26" width="160" height="30" as="geometry" />
        </mxCell>
        <mxCell id="zi9uzp55vkOhE5EhcV1z-46" value="Навык (int)" style="text;strokeColor=none;fillColor=none;spacingLeft=4;spacingRight=4;overflow=hidden;rotatable=0;points=[[0,0.5],[1,0.5]];portConstraint=eastwest;fontSize=12;whiteSpace=wrap;html=1;" vertex="1" parent="zi9uzp55vkOhE5EhcV1z-44">
          <mxGeometry y="56" width="160" height="30" as="geometry" />
        </mxCell>
        <mxCell id="zi9uzp55vkOhE5EhcV1z-47" value="Балл&amp;nbsp;(int)" style="text;strokeColor=none;fillColor=none;spacingLeft=4;spacingRight=4;overflow=hidden;rotatable=0;points=[[0,0.5],[1,0.5]];portConstraint=eastwest;fontSize=12;whiteSpace=wrap;html=1;" vertex="1" parent="zi9uzp55vkOhE5EhcV1z-44">
          <mxGeometry y="86" width="160" height="30" as="geometry" />
        </mxCell>
        <mxCell id="zi9uzp55vkOhE5EhcV1z-48" value="Дата (date)" style="text;strokeColor=none;fillColor=none;spacingLeft=4;spacingRight=4;overflow=hidden;rotatable=0;points=[[0,0.5],[1,0.5]];portConstraint=eastwest;fontSize=12;whiteSpace=wrap;html=1;" vertex="1" parent="zi9uzp55vkOhE5EhcV1z-44">
          <mxGeometry y="116" width="160" height="30" as="geometry" />
        </mxCell>
        <mxCell id="zi9uzp55vkOhE5EhcV1z-49" value="Пустой сертификат" style="swimlane;fontStyle=0;childLayout=stackLayout;horizontal=1;startSize=26;horizontalStack=0;resizeParent=1;resizeParentMax=0;resizeLast=0;collapsible=1;marginBottom=0;align=center;fontSize=14;" vertex="1" parent="1">
          <mxGeometry x="40" y="-2320" width="160" height="140" as="geometry" />
        </mxCell>
        <mxCell id="zi9uzp55vkOhE5EhcV1z-50" value="Название (string)" style="text;strokeColor=none;fillColor=none;spacingLeft=4;spacingRight=4;overflow=hidden;rotatable=0;points=[[0,0.5],[1,0.5]];portConstraint=eastwest;fontSize=12;whiteSpace=wrap;html=1;" vertex="1" parent="zi9uzp55vkOhE5EhcV1z-49">
          <mxGeometry y="26" width="160" height="30" as="geometry" />
        </mxCell>
        <mxCell id="zi9uzp55vkOhE5EhcV1z-51" value="Путь к полному сертификату (file)" style="text;strokeColor=none;fillColor=none;spacingLeft=4;spacingRight=4;overflow=hidden;rotatable=0;points=[[0,0.5],[1,0.5]];portConstraint=eastwest;fontSize=12;whiteSpace=wrap;html=1;" vertex="1" parent="zi9uzp55vkOhE5EhcV1z-49">
          <mxGeometry y="56" width="160" height="44" as="geometry" />
        </mxCell>
        <mxCell id="zi9uzp55vkOhE5EhcV1z-52" value="Путь к одинарному сертификату (file)" style="text;strokeColor=none;fillColor=none;spacingLeft=4;spacingRight=4;overflow=hidden;rotatable=0;points=[[0,0.5],[1,0.5]];portConstraint=eastwest;fontSize=12;whiteSpace=wrap;html=1;" vertex="1" parent="zi9uzp55vkOhE5EhcV1z-49">
          <mxGeometry y="100" width="160" height="40" as="geometry" />
        </mxCell>
        <mxCell id="zi9uzp55vkOhE5EhcV1z-54" value="Сертификат пользователя" style="swimlane;fontStyle=0;childLayout=stackLayout;horizontal=1;startSize=26;horizontalStack=0;resizeParent=1;resizeParentMax=0;resizeLast=0;collapsible=1;marginBottom=0;align=center;fontSize=14;" vertex="1" parent="1">
          <mxGeometry x="260" y="-2320" width="200" height="176" as="geometry" />
        </mxCell>
        <mxCell id="zi9uzp55vkOhE5EhcV1z-55" value="Сертификат&amp;nbsp;(int)" style="text;strokeColor=none;fillColor=none;spacingLeft=4;spacingRight=4;overflow=hidden;rotatable=0;points=[[0,0.5],[1,0.5]];portConstraint=eastwest;fontSize=12;whiteSpace=wrap;html=1;" vertex="1" parent="zi9uzp55vkOhE5EhcV1z-54">
          <mxGeometry y="26" width="200" height="30" as="geometry" />
        </mxCell>
        <mxCell id="zi9uzp55vkOhE5EhcV1z-56" value="Пользователь&amp;nbsp;(int)" style="text;strokeColor=none;fillColor=none;spacingLeft=4;spacingRight=4;overflow=hidden;rotatable=0;points=[[0,0.5],[1,0.5]];portConstraint=eastwest;fontSize=12;whiteSpace=wrap;html=1;" vertex="1" parent="zi9uzp55vkOhE5EhcV1z-54">
          <mxGeometry y="56" width="200" height="30" as="geometry" />
        </mxCell>
        <mxCell id="zi9uzp55vkOhE5EhcV1z-57" value="Основной навык&amp;nbsp;(int)" style="text;strokeColor=none;fillColor=none;spacingLeft=4;spacingRight=4;overflow=hidden;rotatable=0;points=[[0,0.5],[1,0.5]];portConstraint=eastwest;fontSize=12;whiteSpace=wrap;html=1;" vertex="1" parent="zi9uzp55vkOhE5EhcV1z-54">
          <mxGeometry y="86" width="200" height="30" as="geometry" />
        </mxCell>
        <mxCell id="zi9uzp55vkOhE5EhcV1z-58" value="Все навыки (string)" style="text;strokeColor=none;fillColor=none;spacingLeft=4;spacingRight=4;overflow=hidden;rotatable=0;points=[[0,0.5],[1,0.5]];portConstraint=eastwest;fontSize=12;whiteSpace=wrap;html=1;" vertex="1" parent="zi9uzp55vkOhE5EhcV1z-54">
          <mxGeometry y="116" width="200" height="30" as="geometry" />
        </mxCell>
        <mxCell id="zi9uzp55vkOhE5EhcV1z-60" value="Дата теста (date)" style="text;strokeColor=none;fillColor=none;spacingLeft=4;spacingRight=4;overflow=hidden;rotatable=0;points=[[0,0.5],[1,0.5]];portConstraint=eastwest;fontSize=12;whiteSpace=wrap;html=1;" vertex="1" parent="zi9uzp55vkOhE5EhcV1z-54">
          <mxGeometry y="146" width="200" height="30" as="geometry" />
        </mxCell>
        <mxCell id="zi9uzp55vkOhE5EhcV1z-62" value="" style="endArrow=classic;html=1;rounded=0;entryX=1;entryY=0.5;entryDx=0;entryDy=0;exitX=0;exitY=0.25;exitDx=0;exitDy=0;" edge="1" parent="1" source="zi9uzp55vkOhE5EhcV1z-20" target="zi9uzp55vkOhE5EhcV1z-19">
          <mxGeometry width="50" height="50" relative="1" as="geometry">
            <mxPoint x="250" y="-1980" as="sourcePoint" />
            <mxPoint x="200" y="-1930" as="targetPoint" />
          </mxGeometry>
        </mxCell>
        <mxCell id="zi9uzp55vkOhE5EhcV1z-64" value="" style="endArrow=classic;html=1;rounded=0;entryX=0;entryY=0.5;entryDx=0;entryDy=0;exitX=1;exitY=0.25;exitDx=0;exitDy=0;" edge="1" parent="1" source="zi9uzp55vkOhE5EhcV1z-32" target="zi9uzp55vkOhE5EhcV1z-38">
          <mxGeometry width="50" height="50" relative="1" as="geometry">
            <mxPoint x="160" y="-1810" as="sourcePoint" />
            <mxPoint x="210" y="-1860" as="targetPoint" />
          </mxGeometry>
        </mxCell>
        <mxCell id="zi9uzp55vkOhE5EhcV1z-65" value="" style="endArrow=classic;html=1;rounded=0;entryX=0;entryY=0.5;entryDx=0;entryDy=0;exitX=1;exitY=0.25;exitDx=0;exitDy=0;" edge="1" parent="1" source="zi9uzp55vkOhE5EhcV1z-32" target="zi9uzp55vkOhE5EhcV1z-46">
          <mxGeometry width="50" height="50" relative="1" as="geometry">
            <mxPoint x="200" y="-1681" as="sourcePoint" />
            <mxPoint x="254" y="-1710" as="targetPoint" />
          </mxGeometry>
        </mxCell>
        <mxCell id="zi9uzp55vkOhE5EhcV1z-66" value="" style="endArrow=classic;html=1;rounded=0;entryX=0;entryY=0.5;entryDx=0;entryDy=0;exitX=1.005;exitY=0.081;exitDx=0;exitDy=0;exitPerimeter=0;" edge="1" parent="1" source="zi9uzp55vkOhE5EhcV1z-14" target="zi9uzp55vkOhE5EhcV1z-45">
          <mxGeometry width="50" height="50" relative="1" as="geometry">
            <mxPoint x="-10" y="-1800" as="sourcePoint" />
            <mxPoint x="40" y="-1850" as="targetPoint" />
          </mxGeometry>
        </mxCell>
        <mxCell id="zi9uzp55vkOhE5EhcV1z-67" value="" style="endArrow=classic;html=1;rounded=0;entryX=0;entryY=0.5;entryDx=0;entryDy=0;exitX=1;exitY=0.25;exitDx=0;exitDy=0;" edge="1" parent="1" source="zi9uzp55vkOhE5EhcV1z-28" target="zi9uzp55vkOhE5EhcV1z-41">
          <mxGeometry width="50" height="50" relative="1" as="geometry">
            <mxPoint x="-10" y="-1800" as="sourcePoint" />
            <mxPoint x="40" y="-1850" as="targetPoint" />
          </mxGeometry>
        </mxCell>
        <mxCell id="zi9uzp55vkOhE5EhcV1z-69" value="" style="endArrow=classic;html=1;rounded=0;entryX=0;entryY=0.5;entryDx=0;entryDy=0;exitX=1;exitY=0.25;exitDx=0;exitDy=0;" edge="1" parent="1" source="zi9uzp55vkOhE5EhcV1z-32" target="zi9uzp55vkOhE5EhcV1z-42">
          <mxGeometry width="50" height="50" relative="1" as="geometry">
            <mxPoint x="-10" y="-1800" as="sourcePoint" />
            <mxPoint x="40" y="-1850" as="targetPoint" />
          </mxGeometry>
        </mxCell>
        <mxCell id="zi9uzp55vkOhE5EhcV1z-71" value="" style="endArrow=classic;html=1;rounded=0;entryX=0;entryY=0.5;entryDx=0;entryDy=0;exitX=1.002;exitY=0.12;exitDx=0;exitDy=0;exitPerimeter=0;" edge="1" parent="1" source="zi9uzp55vkOhE5EhcV1z-49" target="zi9uzp55vkOhE5EhcV1z-55">
          <mxGeometry width="50" height="50" relative="1" as="geometry">
            <mxPoint x="290" y="-1730" as="sourcePoint" />
            <mxPoint x="340" y="-1780" as="targetPoint" />
          </mxGeometry>
        </mxCell>
        <mxCell id="zi9uzp55vkOhE5EhcV1z-73" value="" style="endArrow=classic;html=1;rounded=0;exitX=1.009;exitY=0.095;exitDx=0;exitDy=0;exitPerimeter=0;entryX=0;entryY=0.5;entryDx=0;entryDy=0;" edge="1" parent="1" source="zi9uzp55vkOhE5EhcV1z-14" target="zi9uzp55vkOhE5EhcV1z-56">
          <mxGeometry width="50" height="50" relative="1" as="geometry">
            <mxPoint x="290" y="-1860" as="sourcePoint" />
            <mxPoint x="340" y="-1910" as="targetPoint" />
          </mxGeometry>
        </mxCell>
      </root>
    </mxGraphModel>
  </diagram>
</mxfile>
